#!OML:ASF H:\Terrain\Patient Classification 1\PLAYGROUND\JustinFriday\JustinFriday.ASF
:FULLY-SPECIFIED
:DEGREES
1387
root -13.9403 28.1834 -4.04022 333.69 -4.33255 -1.54295
lowerback 40.9653 0.91675 7.27722
upperback 14.0401 3.90522 0.0955279
thorax -3.51472 2.19052 -5.04261
lowerneck 22.703 -9.7111 5.9219
upperneck 10.2662 -10.9898 -3.57183
head -0.925584 -5.08152 -1.30338
rclavicle 1.03368e-014 -2.38542e-015
rhumerus 2.30557 -62.3639 -18.3834
rradius 106.007
rwrist -28.1218
rhand -30.9677 -11.7803
rfingers 7.12502
rthumb -4.25197 -41.7176
lclavicle 1.03368e-014 -2.38542e-015
lhumerus -45.0091 -43.5437 66.825
lradius 74.1632
lwrist -37.9759
lhand -43.2902 -40.2425
lfingers 7.12502
lthumb -16.1378 -10.8943
rfemur -59.5801 -5.82594 25.1102
rtibia 89.353
rfoot 10.5108 -1.85066
rtoes 10.5803
lfemur -50.5414 11.9695 -13.2526
ltibia 83.7244
lfoot 14.3138 -13.7295
ltoes -1.72941
1388
root -13.939 28.1791 -4.0477 333.474 -4.21079 -1.46547
lowerback 40.753 1.00756 6.97214
upperback 14.5082 3.8757 0.221627
thorax -2.96722 2.19587 -4.71996
lowerneck 22.0316 -9.8857 6.18809
upperneck 9.83612 -11.2202 -3.72331
head -1.00807 -5.19587 -1.38828
rclavicle 1.35174e-014 -2.10712e-014
rhumerus 7.00089 -63.5506 -22.7859
rradius 105.615
rwrist -26.8023
rhand -27.7902 -12.6357
rfingers 7.12502
rthumb -1.18332 -42.6122
lclavicle 1.35174e-014 -2.10712e-014
lhumerus -43.9015 -42.9831 66.1434
lradius 74.1964
lwrist -38.0279
lhand -43.3588 -39.9611
lfingers 7.12502
lthumb -16.2039 -10.6184
rfemur -58.5286 -6.26627 24.9892
rtibia 88.6566
rfoot 10.1015 -1.59054
rtoes 9.99486
lfemur -50.0104 11.8431 -13.2621
ltibia 83.2128
lfoot 14.1267 -14.1109
ltoes -2.14905
1389
root -13.9379 28.1592 -4.04802 333.464 -4.03401 -1.54538
lowerback 40.5565 0.961077 7.02261
upperback 14.5578 3.82193 0.171034
thorax -2.85338 2.18225 -4.77449
lowerneck 22.9392 -10.1316 6.1537
upperneck 8.80514 -11.4861 -3.18202
head -1.48181 -5.34226 -1.12123
rclavicle 1.55052e-014 -5.24792e-014
rhumerus 9.00566 -63.9082 -24.7721
rradius 105.271
rwrist -25.8848
rhand -26.2429 -13.1728
rfingers 7.12502
rthumb 0.311102 -43.1523
lclavicle 1.55052e-014 -5.24792e-014
lhumerus -43.817 -42.8864 65.7128
lradius 74.8792
lwrist -38.1414
lhand -42.6825 -39.8353
lfingers 7.12502
lthumb -15.5526 -10.4407
rfemur -57.703 -6.73739 24.9639
rtibia 88.0469
rfoot 9.40803 -1.27899
rtoes 6.88215
lfemur -49.8853 11.8181 -13.2101
ltibia 82.9297
lfoot 13.6653 -14.7642
ltoes -2.62162
1390
root -13.9076 28.1413 -4.05503 334.053 -2.31163 0.853027
lowerback 40.0624 1.17479 5.09557
upperback 14.3846 3.30218 -0.681097
thorax -3.04251 1.89057 -4.51456
lowerneck 24.1192 -10.4166 5.94164
upperneck 7.56481 -11.8096 -2.35291
head -2.05053 -5.53495 -0.702661
rclavicle -2.41523e-014 4.41302e-014
rhumerus 9.32162 -64.2025 -25.1506
rradius 105.069
rwrist -25.6584
rhand -25.8557 -13.2996
rfingers 7.12502
rthumb 0.685107 -43.2783
lclavicle -2.41523e-014 4.41302e-014
lhumerus -43.5894 -42.7637 65.2095
lradius 75.5088
lwrist -38.479
lhand -41.6772 -39.6908
lfingers 7.12502
lthumb -14.5841 -10.2235
rfemur -58.2364 -8.22842 21.607
rtibia 87.8146
rfoot 9.71818 0.28406
rtoes 3.66782
lfemur -50.2491 10.7922 -16.8702
ltibia 82.3385
lfoot 12.6042 -14.3993
ltoes -3.58393
1391
root -13.9443 28.1326 -4.05829 333.714 -3.64661 -1.22366
lowerback 41.7395 1.04181 6.39364
upperback 13.7967 3.79098 0.14739
thorax -4.0919 2.0701 -4.52617
lowerneck 23.7715 -10.44 5.20952
upperneck 7.49782 -12.0574 -2.21903
head -1.96443 -5.68485 -0.52921
rclavicle -9.93923e-015 -7.15625e-015
rhumerus 10.0257 -63.9378 -25.5528
rradius 105.065
rwrist -25.7631
rhand -26.207 -13.3835
rfingers 7.12502
rthumb 0.345861 -43.363
lclavicle -9.93923e-015 -7.15625e-015
lhumerus -43.8547 -41.9976 65.7358
lradius 75.3881
lwrist -38.5783
lhand -41.1287 -39.5186
lfingers 7.12502
lthumb -14.0556 -10.0139
rfemur -56.7241 -7.1252 24.3694
rtibia 86.8306
rfoot 9.97496 -0.285854
rtoes 5.75379
lfemur -49.7298 11.874 -13.6447
ltibia 82.1747
lfoot 11.8811 -15.8653
ltoes -5.71772
1392
root -13.9369 28.1631 -4.09945 333.948 -2.77484 -0.587854
lowerback 40.3608 1.07426 6.00584
upperback 13.9687 3.57543 -0.245782
thorax -3.52669 2.00624 -4.63507
lowerneck 27.0584 -11.1386 6.07028
upperneck 4.78862 -12.4504 -2.02729
head -2.91745 -5.85123 -0.333086
rclavicle 3.28989e-014 -1.17283e-014
rhumerus 6.98341 -64.2637 -23.5702
rradius 105.707
rwrist -26.3213
rhand -26.7748 -13.2814
rfingers 7.12502
rthumb -0.202603 -43.261
lclavicle 3.28989e-014 -1.17283e-014
lhumerus -44.7416 -42.2188 65.6905
lradius 76.1202
lwrist -37.7988
lhand -40.7366 -39.6882
lfingers 7.12502
lthumb -13.6778 -10.1577
rfemur -56.203 -7.95108 23.1192
rtibia 85.9831
rfoot 11.6063 0.224542
rtoes 7.03849
lfemur -49.4967 11.0412 -14.7991
ltibia 81.5466
lfoot 11.098 -15.3958
ltoes -6.49933
1393
root -13.9451 28.1349 -4.09021 334.376 -1.87002 1.22928
lowerback 41.5152 1.59317 3.79654
upperback 13.52 3.41863 -0.42162
thorax -4.5082 1.8201 -3.68078
lowerneck 24.0383 -10.9953 5.51194
upperneck 6.56953 -12.691 -2.29767
head -2.39003 -5.99063 -0.493041
rclavicle -2.50469e-014 -1.19271e-015
rhumerus 10.3959 -64.3271 -26.4228
rradius 105.124
rwrist -25.6527
rhand -26.553 -12.8594
rfingers 7.12502
rthumb 0.0116338 -42.8391
lclavicle -2.50469e-014 -1.19271e-015
lhumerus -44.9733 -41.1547 65.8523
lradius 77.1034
lwrist -38.655
lhand -40.3653 -39.5955
lfingers 7.12502
lthumb -13.3199 -10.0412
rfemur -56.5699 -8.49839 20.8386
rtibia 85.6634
rfoot 11.7188 0.695211
rtoes 4.45116
lfemur -49.7068 10.6834 -17.0826
ltibia 81.2761
lfoot 10.4424 -14.5803
ltoes -6.63821
1394
root -13.9552 28.1123 -4.09443 333.748 -3.54599 -1.43071
lowerback 42.1096 1.15055 6.33275
upperback 13.963 3.93253 0.313397
thorax -4.01253 2.13633 -4.37121
lowerneck 22.9712 -11.0763 5.25406
upperneck 6.23925 -12.9496 -2.06346
head -2.29865 -6.14818 -0.390601
rclavicle -1.19271e-015 3.1408e-014
rhumerus 13.5085 -65.173 -29.2577
rradius 104.898
rwrist -25.4611
rhand -26.4475 -12.3793
rfingers 7.12502
rthumb 0.113498 -42.359
lclavicle -1.19271e-015 3.1408e-014
lhumerus -44.0092 -40.3105 65.3795
lradius 77.3862
lwrist -39.1922
lhand -41.113 -39.2964
lfingers 7.12502
lthumb -14.0405 -9.79063
rfemur -54.757 -7.81587 24.253
rtibia 84.8015
rfoot 12.9139 0.386002
rtoes 9.42217
lfemur -48.9178 11.7669 -13.08
ltibia 81.4375
lfoot 10.0135 -15.1982
ltoes -5.87094
1395
root -13.9737 28.1201 -4.11554 334.05 -3.25863 -1.97598
lowerback 41.6612 1.02583 6.53431
upperback 14.127 3.84811 0.562978
thorax -3.70988 2.10771 -4.16144
lowerneck 22.9362 -11.2514 5.07821
upperneck 5.56245 -13.2284 -1.87716
head -2.51612 -6.30159 -0.251788
rclavicle 4.85035e-014 -4.21423e-014
rhumerus 15.1673 -65.7776 -30.8312
rradius 104.941
rwrist -24.8883
rhand -25.6572 -12.7412
rfingers 7.12502
rthumb 0.87679 -42.7191
lclavicle 4.85035e-014 -4.21423e-014
lhumerus -43.3183 -39.6482 65.0838
lradius 77.1172
lwrist -39.2091
lhand -41.4656 -39.6085
lfingers 7.12502
lthumb -14.3803 -10.1266
rfemur -54.3928 -8.34828 24.6886
rtibia 84.3232
rfoot 13.0885 0.675964
rtoes 9.48939
lfemur -49.0168 11.4201 -12.4703
ltibia 81.3003
lfoot 9.7051 -14.7996
ltoes -3.65531
